<?xml version="1.0" encoding="UTF-8"?>
<!DOCTYPE svg PUBLIC "-//W3C//DTD SVG 1.1//EN" "http://www.w3.org/Graphics/SVG/1.1/DTD/svg11.dtd">
<!-- Creator: CorelDRAW -->
<svg xmlns="http://www.w3.org/2000/svg" xml:space="preserve" width="300px" height="300px" style="shape-rendering:geometricPrecision; text-rendering:geometricPrecision; image-rendering:optimizeQuality; fill-rule:evenodd; clip-rule:evenodd"
viewBox="0 0 82.795 82.7947"
 xmlns:xlink="http://www.w3.org/1999/xlink">
 <defs>
  <style type="text/css">
   <![CDATA[
    .fil0 {fill:red}
   ]]>
  </style>
 </defs>
 <g id="图层_x0020_1">
  <metadata id="CorelCorpID_0Corel-Layer"/>
  <path class="fil0" d="M37.5165 27.1668l27.5024 27.5024c2.50575,-4.27618 3.94459,-9.25252 3.94459,-14.5657 0,-18.2211 -11.2971,-33.7012 -27.2606,-39.9978l-0.276582 -0.105743c22.8463,0.015892 41.3688,18.5475 41.3688,41.3972 0,8.78677 -2.74199,16.933 -7.41272,23.6354l7.41272 7.41272 -10.3494 10.3494 -7.38277 -7.4335c-6.70735,4.68387 -14.8655,7.4335 -23.6654,7.4335 -9.93405,0 -19.4879,-3.20133 -27.3377,-8.88517l-1.23255 1.23255c0.0712085,0.384159 0.109411,0.779321 0.109411,1.18426 0,3.57173 -2.89663,6.46836 -6.46836,6.46836 -3.57173,0 -6.46836,-2.89663 -6.46836,-6.46836 0,-3.57173 2.89663,-6.46836 6.46836,-6.46836 0.40433,0 0.800714,0.038202 1.18457,0.109105l0.818134 -0.818134c-2.15612,-2.15062 -4.11481,-4.52526 -5.8339,-7.10221l6.35895 -6.35956c7.84425,8.1902 18.8742,13.276 31.1077,13.276 5.34461,0 10.3491,-1.45595 14.6418,-3.98982l-27.4238 -27.6118 -7.91668 7.91668 -11.6431 -11.6431 20.5004 -20.5004c1.28939,0.400051 2.65886,0.616427 4.07936,0.616427 3.46752,0 6.63492,-1.28573 9.05387,-3.40395l6.4702 6.4702 -10.3494 10.3494z"/>
 </g>
</svg>
